<svg width="120" height="44" viewBox="0 0 120 44" fill="none" xmlns="http://www.w3.org/2000/svg">
<path d="M57.01 32H52.051L43.757 19.443V32H38.798V11.642H43.757L52.051 24.257V11.642H57.01V32ZM75.8586 23.648C75.8586 24.112 75.8296 24.5953 75.7716 25.098H64.5486C64.626 26.1033 64.945 26.8767 65.5056 27.418C66.0856 27.94 66.7913 28.201 67.6226 28.201C68.86 28.201 69.7203 27.679 70.2036 26.635H75.4816C75.211 27.6983 74.718 28.6553 74.0026 29.506C73.3066 30.3567 72.427 31.0237 71.3636 31.507C70.3003 31.9903 69.1113 32.232 67.7966 32.232C66.2113 32.232 64.8 31.8937 63.5626 31.217C62.3253 30.5403 61.3586 29.5737 60.6626 28.317C59.9666 27.0603 59.6186 25.591 59.6186 23.909C59.6186 22.227 59.957 20.7577 60.6336 19.501C61.3296 18.2443 62.2963 17.2777 63.5336 16.601C64.771 15.9243 66.192 15.586 67.7966 15.586C69.3626 15.586 70.7546 15.9147 71.9726 16.572C73.1906 17.2293 74.138 18.167 74.8146 19.385C75.5106 20.603 75.8586 22.024 75.8586 23.648ZM70.7836 22.343C70.7836 21.4923 70.4936 20.8157 69.9136 20.313C69.3336 19.8103 68.6086 19.559 67.7386 19.559C66.9073 19.559 66.2016 19.8007 65.6216 20.284C65.061 20.7673 64.713 21.4537 64.5776 22.343H70.7836ZM85.8408 32.232C84.2554 32.232 82.8248 31.8937 81.5488 31.217C80.2921 30.5403 79.2964 29.5737 78.5618 28.317C77.8464 27.0603 77.4888 25.591 77.4888 23.909C77.4888 22.2463 77.8561 20.7867 78.5908 19.53C79.3254 18.254 80.3308 17.2777 81.6068 16.601C82.8828 15.9243 84.3134 15.586 85.8988 15.586C87.4841 15.586 88.9148 15.9243 90.1908 16.601C91.4668 17.2777 92.4721 18.254 93.2068 19.53C93.9414 20.7867 94.3088 22.2463 94.3088 23.909C94.3088 25.5717 93.9318 27.041 93.1778 28.317C92.4431 29.5737 91.4281 30.5403 90.1328 31.217C88.8568 31.8937 87.4261 32.232 85.8408 32.232ZM85.8408 27.94C86.7881 27.94 87.5904 27.592 88.2478 26.896C88.9244 26.2 89.2628 25.2043 89.2628 23.909C89.2628 22.6137 88.9341 21.618 88.2768 20.922C87.6388 20.226 86.8461 19.878 85.8988 19.878C84.9321 19.878 84.1298 20.226 83.4918 20.922C82.8538 21.5987 82.5348 22.5943 82.5348 23.909C82.5348 25.2043 82.8441 26.2 83.4628 26.896C84.1008 27.592 84.8934 27.94 85.8408 27.94ZM110.193 11.642V15.615H101.899V19.907H108.105V23.764H101.899V32H96.9396V11.642H110.193ZM115.293 14.136C114.423 14.136 113.708 13.8847 113.147 13.382C112.606 12.86 112.335 12.222 112.335 11.468C112.335 10.6947 112.606 10.0567 113.147 9.554C113.708 9.032 114.423 8.771 115.293 8.771C116.144 8.771 116.84 9.032 117.381 9.554C117.942 10.0567 118.222 10.6947 118.222 11.468C118.222 12.222 117.942 12.86 117.381 13.382C116.84 13.8847 116.144 14.136 115.293 14.136ZM117.758 15.818V32H112.799V15.818H117.758Z" fill="url(#paint0_linear_13_172)"/>
<path d="M12.6116 7L0 14.3864V22L7.8125 17.4545L17.7455 22.4545L25 17.4545V14.3864L12.6116 7Z" fill="url(#paint1_linear_13_172)"/>
<path d="M12.3884 37L25 29.6136V22L17.1875 26.5455L7.25447 21.5455L0 26.5455V29.6136L12.3884 37Z" fill="url(#paint2_linear_13_172)"/>
<defs>
<linearGradient id="paint0_linear_13_172" x1="-43.2737" y1="-14.85" x2="138.417" y2="11.346" gradientUnits="userSpaceOnUse">
<stop offset="0.415734" stop-color="#3387D5"/>
<stop offset="1" stop-color="#7A06C9"/>
</linearGradient>
<linearGradient id="paint1_linear_13_172" x1="-24.1788" y1="1.78409" x2="30.8438" y2="8.5871" gradientUnits="userSpaceOnUse">
<stop offset="0.415734" stop-color="#3387D5"/>
<stop offset="1" stop-color="#7A06C9"/>
</linearGradient>
<linearGradient id="paint2_linear_13_172" x1="49.1788" y1="42.2159" x2="-5.84382" y2="35.4129" gradientUnits="userSpaceOnUse">
<stop offset="0.415734" stop-color="#3387D5"/>
<stop offset="1" stop-color="#7A06C9"/>
</linearGradient>
</defs>
</svg>
